<svg width="127" height="48" viewBox="0 0 127 48" fill="none" xmlns="http://www.w3.org/2000/svg">
<rect width="127" height="48" fill="#D9D9D9"/>
<path d="M22.5277 21.7381H21.2066C21.1285 21.3581 20.9918 21.0243 20.7965 20.7367C20.6047 20.449 20.3703 20.2076 20.0934 20.0122C19.8199 19.8134 19.5163 19.6642 19.1825 19.5648C18.8487 19.4654 18.5007 19.4157 18.1385 19.4157C17.4779 19.4157 16.8796 19.5826 16.3434 19.9164C15.8107 20.2502 15.3863 20.742 15.0703 21.3919C14.7578 22.0417 14.6015 22.839 14.6015 23.7836C14.6015 24.7282 14.7578 25.5254 15.0703 26.1752C15.3863 26.8251 15.8107 27.3169 16.3434 27.6507C16.8796 27.9845 17.4779 28.1515 18.1385 28.1515C18.5007 28.1515 18.8487 28.1017 19.1825 28.0023C19.5163 27.9029 19.8199 27.7555 20.0934 27.5602C20.3703 27.3613 20.6047 27.1181 20.7965 26.8304C20.9918 26.5392 21.1285 26.2054 21.2066 25.829H22.5277C22.4282 26.3865 22.2471 26.8855 21.9843 27.3258C21.7215 27.7662 21.3948 28.1408 21.0042 28.4497C20.6136 28.7551 20.175 28.9877 19.6885 29.1475C19.2056 29.3073 18.6889 29.3872 18.1385 29.3872C17.2081 29.3872 16.3806 29.16 15.6562 28.7054C14.9318 28.2509 14.3618 27.6046 13.9463 26.7665C13.5309 25.9284 13.3231 24.9341 13.3231 23.7836C13.3231 22.633 13.5309 21.6387 13.9463 20.8006C14.3618 19.9625 14.9318 19.3162 15.6562 18.8617C16.3806 18.4071 17.2081 18.1799 18.1385 18.1799C18.6889 18.1799 19.2056 18.2598 19.6885 18.4196C20.175 18.5794 20.6136 18.8137 21.0042 19.1227C21.3948 19.4281 21.7215 19.801 21.9843 20.2413C22.2471 20.6781 22.4282 21.177 22.5277 21.7381ZM27.8157 29.4086C27.0771 29.4086 26.429 29.2328 25.8715 28.8812C25.3175 28.5296 24.8843 28.0378 24.5718 27.4057C24.2628 26.7736 24.1084 26.035 24.1084 25.1898C24.1084 24.3375 24.2628 23.5936 24.5718 22.9579C24.8843 22.3223 25.3175 21.8287 25.8715 21.4771C26.429 21.1255 27.0771 20.9497 27.8157 20.9497C28.5544 20.9497 29.2007 21.1255 29.7547 21.4771C30.3122 21.8287 30.7454 22.3223 31.0544 22.9579C31.3669 23.5936 31.5231 24.3375 31.5231 25.1898C31.5231 26.035 31.3669 26.7736 31.0544 27.4057C30.7454 28.0378 30.3122 28.5296 29.7547 28.8812C29.2007 29.2328 28.5544 29.4086 27.8157 29.4086ZM27.8157 28.2793C28.3768 28.2793 28.8385 28.1355 29.2007 27.8478C29.5629 27.5602 29.831 27.182 30.005 26.7132C30.179 26.2445 30.266 25.7367 30.266 25.1898C30.266 24.6429 30.179 24.1333 30.005 23.661C29.831 23.1887 29.5629 22.807 29.2007 22.5158C28.8385 22.2246 28.3768 22.079 27.8157 22.079C27.2547 22.079 26.793 22.2246 26.4308 22.5158C26.0686 22.807 25.8005 23.1887 25.6265 23.661C25.4525 24.1333 25.3655 24.6429 25.3655 25.1898C25.3655 25.7367 25.4525 26.2445 25.6265 26.7132C25.8005 27.182 26.0686 27.5602 26.4308 27.8478C26.793 28.1355 27.2547 28.2793 27.8157 28.2793ZM33.4421 29.2381V21.0563H34.6566V22.3347H34.7631C34.9335 21.8979 35.2088 21.5588 35.5887 21.3173C35.9687 21.0723 36.425 20.9497 36.9577 20.9497C37.4975 20.9497 37.9467 21.0723 38.3054 21.3173C38.6676 21.5588 38.9499 21.8979 39.1523 22.3347H39.2375C39.447 21.9121 39.7613 21.5765 40.1804 21.3279C40.5994 21.0758 41.1019 20.9497 41.6878 20.9497C42.4193 20.9497 43.0177 21.1788 43.4829 21.6369C43.9481 22.0914 44.1807 22.7999 44.1807 23.7622V29.2381H42.9236V23.7622C42.9236 23.1586 42.7585 22.7271 42.4282 22.4679C42.098 22.2086 41.7091 22.079 41.2617 22.079C40.6864 22.079 40.2407 22.253 39.9247 22.601C39.6086 22.9455 39.4506 23.3823 39.4506 23.9114V29.2381H38.1722V23.6344C38.1722 23.1692 38.0213 22.7946 37.7194 22.5105C37.4176 22.2228 37.0287 22.079 36.5529 22.079C36.2262 22.079 35.9208 22.166 35.6367 22.34C35.3561 22.514 35.1289 22.7555 34.9549 23.0644C34.7844 23.3698 34.6992 23.7232 34.6992 24.1245V29.2381H33.4421ZM46.4792 32.3063V21.0563H47.6937V22.356H47.8428C47.9351 22.214 48.063 22.0328 48.2263 21.8127C48.3932 21.589 48.6312 21.3901 48.9401 21.2161C49.2526 21.0385 49.6752 20.9497 50.2079 20.9497C50.8968 20.9497 51.504 21.122 52.0296 21.4664C52.5552 21.8109 52.9653 22.2992 53.2601 22.9313C53.5548 23.5634 53.7022 24.3091 53.7022 25.1685C53.7022 26.035 53.5548 26.786 53.2601 27.4217C52.9653 28.0538 52.557 28.5439 52.0349 28.8919C51.5129 29.2363 50.911 29.4086 50.2292 29.4086C49.7036 29.4086 49.2828 29.3215 48.9668 29.1475C48.6507 28.97 48.4074 28.7693 48.237 28.5456C48.0665 28.3184 47.9351 28.1301 47.8428 27.981H47.7363V32.3063H46.4792ZM47.715 25.1472C47.715 25.7651 47.8055 26.3102 47.9866 26.7825C48.1677 27.2512 48.4323 27.6188 48.7803 27.8851C49.1283 28.1479 49.5545 28.2793 50.0587 28.2793C50.5843 28.2793 51.0229 28.1408 51.3744 27.8638C51.7295 27.5833 51.9959 27.2068 52.1734 26.7345C52.3545 26.2587 52.4451 25.7296 52.4451 25.1472C52.4451 24.5719 52.3563 24.0534 52.1788 23.5918C52.0047 23.1266 51.7402 22.759 51.3851 22.4892C51.0335 22.2157 50.5914 22.079 50.0587 22.079C49.5474 22.079 49.1177 22.2086 48.7697 22.4679C48.4217 22.7235 48.1589 23.0822 47.9813 23.5439C47.8038 24.0019 47.715 24.5364 47.715 25.1472ZM58.0275 29.4299C57.509 29.4299 57.0385 29.3322 56.6159 29.1369C56.1933 28.938 55.8577 28.6522 55.6092 28.2793C55.3606 27.9029 55.2363 27.4483 55.2363 26.9157C55.2363 26.4469 55.3286 26.0669 55.5133 25.7757C55.6979 25.481 55.9447 25.2502 56.2537 25.0833C56.5626 24.9164 56.9035 24.7921 57.2764 24.7104C57.6528 24.6252 58.031 24.5577 58.411 24.508C58.9082 24.4441 59.3112 24.3961 59.6202 24.3642C59.9327 24.3287 60.1599 24.2701 60.302 24.1884C60.4476 24.1067 60.5204 23.9647 60.5204 23.7622V23.7196C60.5204 23.1941 60.3766 22.7857 60.0889 22.4945C59.8048 22.2033 59.3734 22.0577 58.7945 22.0577C58.1944 22.0577 57.7239 22.1891 57.3829 22.4519C57.042 22.7147 56.8023 22.9952 56.6638 23.2935L55.4707 22.8674C55.6837 22.3702 55.9678 21.9831 56.3229 21.7061C56.6816 21.4256 57.0722 21.2303 57.4948 21.1202C57.9209 21.0066 58.34 20.9497 58.7519 20.9497C59.0147 20.9497 59.3165 20.9817 59.6574 21.0456C60.0019 21.106 60.3339 21.2321 60.6535 21.4238C60.9767 21.6156 61.2448 21.905 61.4579 22.2921C61.6709 22.6791 61.7775 23.1976 61.7775 23.8475V29.2381H60.5204V28.1301H60.4565C60.3712 28.3077 60.2292 28.4977 60.0303 28.7001C59.8315 28.9025 59.5669 29.0747 59.2366 29.2168C58.9064 29.3588 58.5033 29.4299 58.0275 29.4299ZM58.2192 28.3006C58.7164 28.3006 59.1354 28.2029 59.4763 28.0076C59.8208 27.8123 60.08 27.5602 60.254 27.2512C60.4316 26.9423 60.5204 26.6174 60.5204 26.2765V25.1259C60.4671 25.1898 60.3499 25.2484 60.1688 25.3017C59.9913 25.3514 59.7853 25.3958 59.5509 25.4348C59.3201 25.4703 59.0946 25.5023 58.8744 25.5307C58.6578 25.5556 58.482 25.5769 58.3471 25.5946C58.0204 25.6372 57.715 25.7065 57.4309 25.8024C57.1503 25.8947 56.9231 26.035 56.7491 26.2232C56.5786 26.4078 56.4934 26.66 56.4934 26.9796C56.4934 27.4164 56.655 27.7466 56.9781 27.9703C57.3048 28.1905 57.7185 28.3006 58.2192 28.3006ZM65.3291 24.3162V29.2381H64.072V21.0563H65.2864V22.3347H65.393C65.5847 21.9192 65.8759 21.5854 66.2666 21.3333C66.6572 21.0776 67.1614 20.9497 67.7793 20.9497C68.3333 20.9497 68.818 21.0634 69.2335 21.2907C69.649 21.5144 69.9722 21.8553 70.203 22.3134C70.4338 22.7679 70.5492 23.3432 70.5492 24.0392V29.2381H69.2921V24.1245C69.2921 23.4817 69.1252 22.981 68.7914 22.6223C68.4576 22.2601 67.9995 22.079 67.4171 22.079C67.0158 22.079 66.6572 22.166 66.3411 22.34C66.0286 22.514 65.7818 22.7679 65.6007 23.1017C65.4196 23.4355 65.3291 23.8404 65.3291 24.3162ZM73.3631 32.3063C73.15 32.3063 72.96 32.2885 72.7931 32.253C72.6262 32.2211 72.5108 32.1891 72.4469 32.1571L72.7665 31.0492C73.0719 31.1273 73.3418 31.1557 73.5761 31.1344C73.8105 31.1131 74.0182 31.0083 74.1994 30.8201C74.384 30.6355 74.5527 30.3354 74.7054 29.9199L74.9398 29.2807L71.9142 21.0563H73.2778L75.5364 27.5762H75.6216L77.8801 21.0563H79.2437L75.7707 30.4313C75.6145 30.8539 75.4209 31.2037 75.1901 31.4806C74.9593 31.7612 74.6912 31.9689 74.3858 32.1039C74.0839 32.2388 73.743 32.3063 73.3631 32.3063ZM86.3789 18.329V29.2381H85.1218V18.329H86.3789ZM92.0052 29.4086C91.2666 29.4086 90.6185 29.2328 90.0609 28.8812C89.507 28.5296 89.0737 28.0378 88.7612 27.4057C88.4523 26.7736 88.2978 26.035 88.2978 25.1898C88.2978 24.3375 88.4523 23.5936 88.7612 22.9579C89.0737 22.3223 89.507 21.8287 90.0609 21.4771C90.6185 21.1255 91.2666 20.9497 92.0052 20.9497C92.7438 20.9497 93.3901 21.1255 93.9441 21.4771C94.5016 21.8287 94.9349 22.3223 95.2438 22.9579C95.5563 23.5936 95.7126 24.3375 95.7126 25.1898C95.7126 26.035 95.5563 26.7736 95.2438 27.4057C94.9349 28.0378 94.5016 28.5296 93.9441 28.8812C93.3901 29.2328 92.7438 29.4086 92.0052 29.4086ZM92.0052 28.2793C92.5663 28.2793 93.0279 28.1355 93.3901 27.8478C93.7524 27.5602 94.0205 27.182 94.1945 26.7132C94.3685 26.2445 94.4555 25.7367 94.4555 25.1898C94.4555 24.6429 94.3685 24.1333 94.1945 23.661C94.0205 23.1887 93.7524 22.807 93.3901 22.5158C93.0279 22.2246 92.5663 22.079 92.0052 22.079C91.4441 22.079 90.9825 22.2246 90.6203 22.5158C90.258 22.807 89.9899 23.1887 89.8159 23.661C89.6419 24.1333 89.5549 24.6429 89.5549 25.1898C89.5549 25.7367 89.6419 26.2445 89.8159 26.7132C89.9899 27.182 90.258 27.5602 90.6203 27.8478C90.9825 28.1355 91.4441 28.2793 92.0052 28.2793ZM100.934 32.4767C100.327 32.4767 99.8048 32.3986 99.368 32.2424C98.9312 32.0897 98.5672 31.8872 98.2761 31.6351C97.9884 31.3865 97.7594 31.1202 97.5889 30.8361L98.5903 30.133C98.704 30.2821 98.8478 30.4526 99.0218 30.6443C99.1958 30.8397 99.4337 31.0083 99.7356 31.1504C100.041 31.296 100.44 31.3688 100.934 31.3688C101.595 31.3688 102.14 31.209 102.569 30.8894C102.999 30.5698 103.214 30.0691 103.214 29.3872V27.7253H103.107C103.015 27.8745 102.884 28.0591 102.713 28.2793C102.546 28.4959 102.305 28.6894 101.989 28.8599C101.676 29.0268 101.254 29.1103 100.721 29.1103C100.061 29.1103 99.4675 28.954 98.9419 28.6415C98.4199 28.329 98.0062 27.8745 97.7008 27.2779C97.3989 26.6813 97.248 25.9568 97.248 25.1046C97.248 24.2665 97.3954 23.5367 97.6901 22.9153C97.9849 22.2903 98.395 21.8073 98.9206 21.4664C99.4462 21.122 100.053 20.9497 100.742 20.9497C101.275 20.9497 101.698 21.0385 102.01 21.2161C102.326 21.3901 102.568 21.589 102.735 21.8127C102.905 22.0328 103.036 22.214 103.129 22.356H103.257V21.0563H104.471V29.4725C104.471 30.1756 104.311 30.7473 103.992 31.1877C103.676 31.6316 103.249 31.9565 102.713 32.1625C102.181 32.372 101.587 32.4767 100.934 32.4767ZM100.891 27.981C101.396 27.981 101.822 27.8656 102.17 27.6348C102.518 27.4039 102.782 27.0719 102.964 26.6387C103.145 26.2054 103.235 25.687 103.235 25.0833C103.235 24.4938 103.146 23.9735 102.969 23.5225C102.791 23.0715 102.529 22.7182 102.181 22.4625C101.833 22.2068 101.403 22.079 100.891 22.079C100.359 22.079 99.9149 22.214 99.5598 22.4838C99.2082 22.7537 98.9437 23.1159 98.7661 23.5705C98.5921 24.025 98.5051 24.5293 98.5051 25.0833C98.5051 25.6515 98.5939 26.1539 98.7714 26.5907C98.9525 27.024 99.2189 27.3649 99.5704 27.6135C99.9256 27.8585 100.366 27.981 100.891 27.981ZM110.096 29.4086C109.357 29.4086 108.709 29.2328 108.152 28.8812C107.598 28.5296 107.165 28.0378 106.852 27.4057C106.543 26.7736 106.389 26.035 106.389 25.1898C106.389 24.3375 106.543 23.5936 106.852 22.9579C107.165 22.3223 107.598 21.8287 108.152 21.4771C108.709 21.1255 109.357 20.9497 110.096 20.9497C110.835 20.9497 111.481 21.1255 112.035 21.4771C112.592 21.8287 113.026 22.3223 113.335 22.9579C113.647 23.5936 113.803 24.3375 113.803 25.1898C113.803 26.035 113.647 26.7736 113.335 27.4057C113.026 28.0378 112.592 28.5296 112.035 28.8812C111.481 29.2328 110.835 29.4086 110.096 29.4086ZM110.096 28.2793C110.657 28.2793 111.119 28.1355 111.481 27.8478C111.843 27.5602 112.111 27.182 112.285 26.7132C112.459 26.2445 112.546 25.7367 112.546 25.1898C112.546 24.6429 112.459 24.1333 112.285 23.661C112.111 23.1887 111.843 22.807 111.481 22.5158C111.119 22.2246 110.657 22.079 110.096 22.079C109.535 22.079 109.073 22.2246 108.711 22.5158C108.349 22.807 108.081 23.1887 107.907 23.661C107.733 24.1333 107.646 24.6429 107.646 25.1898C107.646 25.7367 107.733 26.2445 107.907 26.7132C108.081 27.182 108.349 27.5602 108.711 27.8478C109.073 28.1355 109.535 28.2793 110.096 28.2793Z" fill="black"/>
</svg>
